G75*
%MOIN*%
%OFA0B0*%
%FSLAX24Y24*%
%IPPOS*%
%LPD*%
%AMOC8*
5,1,8,0,0,1.08239X$1,22.5*
%
%ADD10C,0.0310*%
%ADD11C,0.0310*%
%ADD12C,0.0440*%
%ADD13C,0.0039*%
%ADD14C,0.0019*%
%ADD15C,0.0545*%
D10*
X002055Y001835D03*
X002449Y001835D03*
X002843Y001835D03*
X003236Y001835D03*
X003630Y001835D03*
X004024Y001835D03*
X004417Y001835D03*
X004811Y001835D03*
X005205Y001835D03*
X005402Y002425D03*
X005008Y002425D03*
X004614Y002425D03*
X004221Y002425D03*
X003827Y002425D03*
X003433Y002425D03*
X003039Y002425D03*
X002646Y002425D03*
X002252Y002425D03*
X001858Y002425D03*
X031625Y002885D03*
X034635Y002885D03*
X034440Y001375D03*
X031820Y001375D03*
D11*
X006468Y002785D02*
X006158Y002785D01*
X006468Y002785D02*
X006468Y001475D01*
X006158Y001475D01*
X006158Y002785D01*
X006158Y001784D02*
X006468Y001784D01*
X006468Y002093D02*
X006158Y002093D01*
X006158Y002402D02*
X006468Y002402D01*
X006468Y002711D02*
X006158Y002711D01*
X001102Y002785D02*
X000792Y002785D01*
X001102Y002785D02*
X001102Y001475D01*
X000792Y001475D01*
X000792Y002785D01*
X000792Y001784D02*
X001102Y001784D01*
X001102Y002093D02*
X000792Y002093D01*
X000792Y002402D02*
X001102Y002402D01*
X001102Y002711D02*
X000792Y002711D01*
D12*
X000940Y001680D03*
X006320Y001680D03*
X006320Y002580D03*
X000940Y002580D03*
D13*
X031884Y002647D02*
X032038Y002647D01*
X032038Y002271D01*
X031884Y002271D01*
X031884Y002647D01*
X031884Y002309D02*
X032038Y002309D01*
X032038Y002347D02*
X031884Y002347D01*
X031884Y002385D02*
X032038Y002385D01*
X032038Y002423D02*
X031884Y002423D01*
X031884Y002461D02*
X032038Y002461D01*
X032038Y002499D02*
X031884Y002499D01*
X031884Y002537D02*
X032038Y002537D01*
X032038Y002575D02*
X031884Y002575D01*
X031884Y002613D02*
X032038Y002613D01*
X034222Y002647D02*
X034376Y002647D01*
X034376Y002271D01*
X034222Y002271D01*
X034222Y002647D01*
X034222Y002309D02*
X034376Y002309D01*
X034376Y002347D02*
X034222Y002347D01*
X034222Y002385D02*
X034376Y002385D01*
X034376Y002423D02*
X034222Y002423D01*
X034222Y002461D02*
X034376Y002461D01*
X034376Y002499D02*
X034222Y002499D01*
X034222Y002537D02*
X034376Y002537D01*
X034376Y002575D02*
X034222Y002575D01*
X034222Y002613D02*
X034376Y002613D01*
X034246Y001989D02*
X034092Y001989D01*
X034246Y001989D02*
X034246Y001613D01*
X034092Y001613D01*
X034092Y001989D01*
X034092Y001651D02*
X034246Y001651D01*
X034246Y001689D02*
X034092Y001689D01*
X034092Y001727D02*
X034246Y001727D01*
X034246Y001765D02*
X034092Y001765D01*
X034092Y001803D02*
X034246Y001803D01*
X034246Y001841D02*
X034092Y001841D01*
X034092Y001879D02*
X034246Y001879D01*
X034246Y001917D02*
X034092Y001917D01*
X034092Y001955D02*
X034246Y001955D01*
X032168Y001989D02*
X032014Y001989D01*
X032168Y001989D02*
X032168Y001613D01*
X032014Y001613D01*
X032014Y001989D01*
X032014Y001651D02*
X032168Y001651D01*
X032168Y001689D02*
X032014Y001689D01*
X032014Y001727D02*
X032168Y001727D01*
X032168Y001765D02*
X032014Y001765D01*
X032014Y001803D02*
X032168Y001803D01*
X032168Y001841D02*
X032014Y001841D01*
X032014Y001879D02*
X032168Y001879D01*
X032168Y001917D02*
X032014Y001917D01*
X032014Y001955D02*
X032168Y001955D01*
D14*
X032263Y001999D02*
X032437Y001999D01*
X032437Y001603D01*
X032263Y001603D01*
X032263Y001999D01*
X032263Y001621D02*
X032437Y001621D01*
X032437Y001639D02*
X032263Y001639D01*
X032263Y001657D02*
X032437Y001657D01*
X032437Y001675D02*
X032263Y001675D01*
X032263Y001693D02*
X032437Y001693D01*
X032437Y001711D02*
X032263Y001711D01*
X032263Y001729D02*
X032437Y001729D01*
X032437Y001747D02*
X032263Y001747D01*
X032263Y001765D02*
X032437Y001765D01*
X032437Y001783D02*
X032263Y001783D01*
X032263Y001801D02*
X032437Y001801D01*
X032437Y001819D02*
X032263Y001819D01*
X032263Y001837D02*
X032437Y001837D01*
X032437Y001855D02*
X032263Y001855D01*
X032263Y001873D02*
X032437Y001873D01*
X032437Y001891D02*
X032263Y001891D01*
X032263Y001909D02*
X032437Y001909D01*
X032437Y001927D02*
X032263Y001927D01*
X032263Y001945D02*
X032437Y001945D01*
X032437Y001963D02*
X032263Y001963D01*
X032263Y001981D02*
X032437Y001981D01*
X032437Y001999D02*
X032263Y001999D01*
X032523Y001999D02*
X032697Y001999D01*
X032697Y001603D01*
X032523Y001603D01*
X032523Y001999D01*
X032523Y001621D02*
X032697Y001621D01*
X032697Y001639D02*
X032523Y001639D01*
X032523Y001657D02*
X032697Y001657D01*
X032697Y001675D02*
X032523Y001675D01*
X032523Y001693D02*
X032697Y001693D01*
X032697Y001711D02*
X032523Y001711D01*
X032523Y001729D02*
X032697Y001729D01*
X032697Y001747D02*
X032523Y001747D01*
X032523Y001765D02*
X032697Y001765D01*
X032697Y001783D02*
X032523Y001783D01*
X032523Y001801D02*
X032697Y001801D01*
X032697Y001819D02*
X032523Y001819D01*
X032523Y001837D02*
X032697Y001837D01*
X032697Y001855D02*
X032523Y001855D01*
X032523Y001873D02*
X032697Y001873D01*
X032697Y001891D02*
X032523Y001891D01*
X032523Y001909D02*
X032697Y001909D01*
X032697Y001927D02*
X032523Y001927D01*
X032523Y001945D02*
X032697Y001945D01*
X032697Y001963D02*
X032523Y001963D01*
X032523Y001981D02*
X032697Y001981D01*
X032697Y001999D02*
X032523Y001999D01*
X032783Y001999D02*
X032957Y001999D01*
X032957Y001603D01*
X032783Y001603D01*
X032783Y001999D01*
X032783Y001621D02*
X032957Y001621D01*
X032957Y001639D02*
X032783Y001639D01*
X032783Y001657D02*
X032957Y001657D01*
X032957Y001675D02*
X032783Y001675D01*
X032783Y001693D02*
X032957Y001693D01*
X032957Y001711D02*
X032783Y001711D01*
X032783Y001729D02*
X032957Y001729D01*
X032957Y001747D02*
X032783Y001747D01*
X032783Y001765D02*
X032957Y001765D01*
X032957Y001783D02*
X032783Y001783D01*
X032783Y001801D02*
X032957Y001801D01*
X032957Y001819D02*
X032783Y001819D01*
X032783Y001837D02*
X032957Y001837D01*
X032957Y001855D02*
X032783Y001855D01*
X032783Y001873D02*
X032957Y001873D01*
X032957Y001891D02*
X032783Y001891D01*
X032783Y001909D02*
X032957Y001909D01*
X032957Y001927D02*
X032783Y001927D01*
X032783Y001945D02*
X032957Y001945D01*
X032957Y001963D02*
X032783Y001963D01*
X032783Y001981D02*
X032957Y001981D01*
X032957Y001999D02*
X032783Y001999D01*
X033043Y001999D02*
X033217Y001999D01*
X033217Y001603D01*
X033043Y001603D01*
X033043Y001999D01*
X033043Y001621D02*
X033217Y001621D01*
X033217Y001639D02*
X033043Y001639D01*
X033043Y001657D02*
X033217Y001657D01*
X033217Y001675D02*
X033043Y001675D01*
X033043Y001693D02*
X033217Y001693D01*
X033217Y001711D02*
X033043Y001711D01*
X033043Y001729D02*
X033217Y001729D01*
X033217Y001747D02*
X033043Y001747D01*
X033043Y001765D02*
X033217Y001765D01*
X033217Y001783D02*
X033043Y001783D01*
X033043Y001801D02*
X033217Y001801D01*
X033217Y001819D02*
X033043Y001819D01*
X033043Y001837D02*
X033217Y001837D01*
X033217Y001855D02*
X033043Y001855D01*
X033043Y001873D02*
X033217Y001873D01*
X033217Y001891D02*
X033043Y001891D01*
X033043Y001909D02*
X033217Y001909D01*
X033217Y001927D02*
X033043Y001927D01*
X033043Y001945D02*
X033217Y001945D01*
X033217Y001963D02*
X033043Y001963D01*
X033043Y001981D02*
X033217Y001981D01*
X033217Y001999D02*
X033043Y001999D01*
X033303Y001999D02*
X033477Y001999D01*
X033477Y001603D01*
X033303Y001603D01*
X033303Y001999D01*
X033303Y001621D02*
X033477Y001621D01*
X033477Y001639D02*
X033303Y001639D01*
X033303Y001657D02*
X033477Y001657D01*
X033477Y001675D02*
X033303Y001675D01*
X033303Y001693D02*
X033477Y001693D01*
X033477Y001711D02*
X033303Y001711D01*
X033303Y001729D02*
X033477Y001729D01*
X033477Y001747D02*
X033303Y001747D01*
X033303Y001765D02*
X033477Y001765D01*
X033477Y001783D02*
X033303Y001783D01*
X033303Y001801D02*
X033477Y001801D01*
X033477Y001819D02*
X033303Y001819D01*
X033303Y001837D02*
X033477Y001837D01*
X033477Y001855D02*
X033303Y001855D01*
X033303Y001873D02*
X033477Y001873D01*
X033477Y001891D02*
X033303Y001891D01*
X033303Y001909D02*
X033477Y001909D01*
X033477Y001927D02*
X033303Y001927D01*
X033303Y001945D02*
X033477Y001945D01*
X033477Y001963D02*
X033303Y001963D01*
X033303Y001981D02*
X033477Y001981D01*
X033477Y001999D02*
X033303Y001999D01*
X033563Y001999D02*
X033737Y001999D01*
X033737Y001603D01*
X033563Y001603D01*
X033563Y001999D01*
X033563Y001621D02*
X033737Y001621D01*
X033737Y001639D02*
X033563Y001639D01*
X033563Y001657D02*
X033737Y001657D01*
X033737Y001675D02*
X033563Y001675D01*
X033563Y001693D02*
X033737Y001693D01*
X033737Y001711D02*
X033563Y001711D01*
X033563Y001729D02*
X033737Y001729D01*
X033737Y001747D02*
X033563Y001747D01*
X033563Y001765D02*
X033737Y001765D01*
X033737Y001783D02*
X033563Y001783D01*
X033563Y001801D02*
X033737Y001801D01*
X033737Y001819D02*
X033563Y001819D01*
X033563Y001837D02*
X033737Y001837D01*
X033737Y001855D02*
X033563Y001855D01*
X033563Y001873D02*
X033737Y001873D01*
X033737Y001891D02*
X033563Y001891D01*
X033563Y001909D02*
X033737Y001909D01*
X033737Y001927D02*
X033563Y001927D01*
X033563Y001945D02*
X033737Y001945D01*
X033737Y001963D02*
X033563Y001963D01*
X033563Y001981D02*
X033737Y001981D01*
X033737Y001999D02*
X033563Y001999D01*
X033823Y001999D02*
X033997Y001999D01*
X033997Y001603D01*
X033823Y001603D01*
X033823Y001999D01*
X033823Y001621D02*
X033997Y001621D01*
X033997Y001639D02*
X033823Y001639D01*
X033823Y001657D02*
X033997Y001657D01*
X033997Y001675D02*
X033823Y001675D01*
X033823Y001693D02*
X033997Y001693D01*
X033997Y001711D02*
X033823Y001711D01*
X033823Y001729D02*
X033997Y001729D01*
X033997Y001747D02*
X033823Y001747D01*
X033823Y001765D02*
X033997Y001765D01*
X033997Y001783D02*
X033823Y001783D01*
X033823Y001801D02*
X033997Y001801D01*
X033997Y001819D02*
X033823Y001819D01*
X033823Y001837D02*
X033997Y001837D01*
X033997Y001855D02*
X033823Y001855D01*
X033823Y001873D02*
X033997Y001873D01*
X033997Y001891D02*
X033823Y001891D01*
X033823Y001909D02*
X033997Y001909D01*
X033997Y001927D02*
X033823Y001927D01*
X033823Y001945D02*
X033997Y001945D01*
X033997Y001963D02*
X033823Y001963D01*
X033823Y001981D02*
X033997Y001981D01*
X033997Y001999D02*
X033823Y001999D01*
X033867Y002657D02*
X033693Y002657D01*
X033867Y002657D02*
X033867Y002261D01*
X033693Y002261D01*
X033693Y002657D01*
X033693Y002279D02*
X033867Y002279D01*
X033867Y002297D02*
X033693Y002297D01*
X033693Y002315D02*
X033867Y002315D01*
X033867Y002333D02*
X033693Y002333D01*
X033693Y002351D02*
X033867Y002351D01*
X033867Y002369D02*
X033693Y002369D01*
X033693Y002387D02*
X033867Y002387D01*
X033867Y002405D02*
X033693Y002405D01*
X033693Y002423D02*
X033867Y002423D01*
X033867Y002441D02*
X033693Y002441D01*
X033693Y002459D02*
X033867Y002459D01*
X033867Y002477D02*
X033693Y002477D01*
X033693Y002495D02*
X033867Y002495D01*
X033867Y002513D02*
X033693Y002513D01*
X033693Y002531D02*
X033867Y002531D01*
X033867Y002549D02*
X033693Y002549D01*
X033693Y002567D02*
X033867Y002567D01*
X033867Y002585D02*
X033693Y002585D01*
X033693Y002603D02*
X033867Y002603D01*
X033867Y002621D02*
X033693Y002621D01*
X033693Y002639D02*
X033867Y002639D01*
X033867Y002657D02*
X033693Y002657D01*
X033607Y002657D02*
X033433Y002657D01*
X033607Y002657D02*
X033607Y002261D01*
X033433Y002261D01*
X033433Y002657D01*
X033433Y002279D02*
X033607Y002279D01*
X033607Y002297D02*
X033433Y002297D01*
X033433Y002315D02*
X033607Y002315D01*
X033607Y002333D02*
X033433Y002333D01*
X033433Y002351D02*
X033607Y002351D01*
X033607Y002369D02*
X033433Y002369D01*
X033433Y002387D02*
X033607Y002387D01*
X033607Y002405D02*
X033433Y002405D01*
X033433Y002423D02*
X033607Y002423D01*
X033607Y002441D02*
X033433Y002441D01*
X033433Y002459D02*
X033607Y002459D01*
X033607Y002477D02*
X033433Y002477D01*
X033433Y002495D02*
X033607Y002495D01*
X033607Y002513D02*
X033433Y002513D01*
X033433Y002531D02*
X033607Y002531D01*
X033607Y002549D02*
X033433Y002549D01*
X033433Y002567D02*
X033607Y002567D01*
X033607Y002585D02*
X033433Y002585D01*
X033433Y002603D02*
X033607Y002603D01*
X033607Y002621D02*
X033433Y002621D01*
X033433Y002639D02*
X033607Y002639D01*
X033607Y002657D02*
X033433Y002657D01*
X033347Y002657D02*
X033173Y002657D01*
X033347Y002657D02*
X033347Y002261D01*
X033173Y002261D01*
X033173Y002657D01*
X033173Y002279D02*
X033347Y002279D01*
X033347Y002297D02*
X033173Y002297D01*
X033173Y002315D02*
X033347Y002315D01*
X033347Y002333D02*
X033173Y002333D01*
X033173Y002351D02*
X033347Y002351D01*
X033347Y002369D02*
X033173Y002369D01*
X033173Y002387D02*
X033347Y002387D01*
X033347Y002405D02*
X033173Y002405D01*
X033173Y002423D02*
X033347Y002423D01*
X033347Y002441D02*
X033173Y002441D01*
X033173Y002459D02*
X033347Y002459D01*
X033347Y002477D02*
X033173Y002477D01*
X033173Y002495D02*
X033347Y002495D01*
X033347Y002513D02*
X033173Y002513D01*
X033173Y002531D02*
X033347Y002531D01*
X033347Y002549D02*
X033173Y002549D01*
X033173Y002567D02*
X033347Y002567D01*
X033347Y002585D02*
X033173Y002585D01*
X033173Y002603D02*
X033347Y002603D01*
X033347Y002621D02*
X033173Y002621D01*
X033173Y002639D02*
X033347Y002639D01*
X033347Y002657D02*
X033173Y002657D01*
X033087Y002657D02*
X032913Y002657D01*
X033087Y002657D02*
X033087Y002261D01*
X032913Y002261D01*
X032913Y002657D01*
X032913Y002279D02*
X033087Y002279D01*
X033087Y002297D02*
X032913Y002297D01*
X032913Y002315D02*
X033087Y002315D01*
X033087Y002333D02*
X032913Y002333D01*
X032913Y002351D02*
X033087Y002351D01*
X033087Y002369D02*
X032913Y002369D01*
X032913Y002387D02*
X033087Y002387D01*
X033087Y002405D02*
X032913Y002405D01*
X032913Y002423D02*
X033087Y002423D01*
X033087Y002441D02*
X032913Y002441D01*
X032913Y002459D02*
X033087Y002459D01*
X033087Y002477D02*
X032913Y002477D01*
X032913Y002495D02*
X033087Y002495D01*
X033087Y002513D02*
X032913Y002513D01*
X032913Y002531D02*
X033087Y002531D01*
X033087Y002549D02*
X032913Y002549D01*
X032913Y002567D02*
X033087Y002567D01*
X033087Y002585D02*
X032913Y002585D01*
X032913Y002603D02*
X033087Y002603D01*
X033087Y002621D02*
X032913Y002621D01*
X032913Y002639D02*
X033087Y002639D01*
X033087Y002657D02*
X032913Y002657D01*
X032827Y002657D02*
X032653Y002657D01*
X032827Y002657D02*
X032827Y002261D01*
X032653Y002261D01*
X032653Y002657D01*
X032653Y002279D02*
X032827Y002279D01*
X032827Y002297D02*
X032653Y002297D01*
X032653Y002315D02*
X032827Y002315D01*
X032827Y002333D02*
X032653Y002333D01*
X032653Y002351D02*
X032827Y002351D01*
X032827Y002369D02*
X032653Y002369D01*
X032653Y002387D02*
X032827Y002387D01*
X032827Y002405D02*
X032653Y002405D01*
X032653Y002423D02*
X032827Y002423D01*
X032827Y002441D02*
X032653Y002441D01*
X032653Y002459D02*
X032827Y002459D01*
X032827Y002477D02*
X032653Y002477D01*
X032653Y002495D02*
X032827Y002495D01*
X032827Y002513D02*
X032653Y002513D01*
X032653Y002531D02*
X032827Y002531D01*
X032827Y002549D02*
X032653Y002549D01*
X032653Y002567D02*
X032827Y002567D01*
X032827Y002585D02*
X032653Y002585D01*
X032653Y002603D02*
X032827Y002603D01*
X032827Y002621D02*
X032653Y002621D01*
X032653Y002639D02*
X032827Y002639D01*
X032827Y002657D02*
X032653Y002657D01*
X032567Y002657D02*
X032393Y002657D01*
X032567Y002657D02*
X032567Y002261D01*
X032393Y002261D01*
X032393Y002657D01*
X032393Y002279D02*
X032567Y002279D01*
X032567Y002297D02*
X032393Y002297D01*
X032393Y002315D02*
X032567Y002315D01*
X032567Y002333D02*
X032393Y002333D01*
X032393Y002351D02*
X032567Y002351D01*
X032567Y002369D02*
X032393Y002369D01*
X032393Y002387D02*
X032567Y002387D01*
X032567Y002405D02*
X032393Y002405D01*
X032393Y002423D02*
X032567Y002423D01*
X032567Y002441D02*
X032393Y002441D01*
X032393Y002459D02*
X032567Y002459D01*
X032567Y002477D02*
X032393Y002477D01*
X032393Y002495D02*
X032567Y002495D01*
X032567Y002513D02*
X032393Y002513D01*
X032393Y002531D02*
X032567Y002531D01*
X032567Y002549D02*
X032393Y002549D01*
X032393Y002567D02*
X032567Y002567D01*
X032567Y002585D02*
X032393Y002585D01*
X032393Y002603D02*
X032567Y002603D01*
X032567Y002621D02*
X032393Y002621D01*
X032393Y002639D02*
X032567Y002639D01*
X032567Y002657D02*
X032393Y002657D01*
X032308Y002657D02*
X032134Y002657D01*
X032308Y002657D02*
X032308Y002261D01*
X032134Y002261D01*
X032134Y002657D01*
X032134Y002279D02*
X032308Y002279D01*
X032308Y002297D02*
X032134Y002297D01*
X032134Y002315D02*
X032308Y002315D01*
X032308Y002333D02*
X032134Y002333D01*
X032134Y002351D02*
X032308Y002351D01*
X032308Y002369D02*
X032134Y002369D01*
X032134Y002387D02*
X032308Y002387D01*
X032308Y002405D02*
X032134Y002405D01*
X032134Y002423D02*
X032308Y002423D01*
X032308Y002441D02*
X032134Y002441D01*
X032134Y002459D02*
X032308Y002459D01*
X032308Y002477D02*
X032134Y002477D01*
X032134Y002495D02*
X032308Y002495D01*
X032308Y002513D02*
X032134Y002513D01*
X032134Y002531D02*
X032308Y002531D01*
X032308Y002549D02*
X032134Y002549D01*
X032134Y002567D02*
X032308Y002567D01*
X032308Y002585D02*
X032134Y002585D01*
X032134Y002603D02*
X032308Y002603D01*
X032308Y002621D02*
X032134Y002621D01*
X032134Y002639D02*
X032308Y002639D01*
X032308Y002657D02*
X032134Y002657D01*
X033952Y002657D02*
X034126Y002657D01*
X034126Y002261D01*
X033952Y002261D01*
X033952Y002657D01*
X033952Y002279D02*
X034126Y002279D01*
X034126Y002297D02*
X033952Y002297D01*
X033952Y002315D02*
X034126Y002315D01*
X034126Y002333D02*
X033952Y002333D01*
X033952Y002351D02*
X034126Y002351D01*
X034126Y002369D02*
X033952Y002369D01*
X033952Y002387D02*
X034126Y002387D01*
X034126Y002405D02*
X033952Y002405D01*
X033952Y002423D02*
X034126Y002423D01*
X034126Y002441D02*
X033952Y002441D01*
X033952Y002459D02*
X034126Y002459D01*
X034126Y002477D02*
X033952Y002477D01*
X033952Y002495D02*
X034126Y002495D01*
X034126Y002513D02*
X033952Y002513D01*
X033952Y002531D02*
X034126Y002531D01*
X034126Y002549D02*
X033952Y002549D01*
X033952Y002567D02*
X034126Y002567D01*
X034126Y002585D02*
X033952Y002585D01*
X033952Y002603D02*
X034126Y002603D01*
X034126Y002621D02*
X033952Y002621D01*
X033952Y002639D02*
X034126Y002639D01*
X034126Y002657D02*
X033952Y002657D01*
D15*
X034710Y002130D03*
X031550Y002130D03*
M02*
