G75*
%MOIN*%
%OFA0B0*%
%FSLAX24Y24*%
%IPPOS*%
%LPD*%
%AMOC8*
5,1,8,0,0,1.08239X$1,22.5*
%
%ADD10C,0.0310*%
%ADD11C,0.0310*%
%ADD12C,0.0440*%
%ADD13C,0.0545*%
D10*
X002055Y001835D03*
X002449Y001835D03*
X002843Y001835D03*
X003236Y001835D03*
X003630Y001835D03*
X004024Y001835D03*
X004417Y001835D03*
X004811Y001835D03*
X005205Y001835D03*
X005402Y002425D03*
X005008Y002425D03*
X004614Y002425D03*
X004221Y002425D03*
X003827Y002425D03*
X003433Y002425D03*
X003039Y002425D03*
X002646Y002425D03*
X002252Y002425D03*
X001858Y002425D03*
X031625Y002885D03*
X034635Y002885D03*
X034440Y001375D03*
X031820Y001375D03*
D11*
X006468Y002785D02*
X006158Y002785D01*
X006468Y002785D02*
X006468Y001475D01*
X006158Y001475D01*
X006158Y002785D01*
X006158Y001784D02*
X006468Y001784D01*
X006468Y002093D02*
X006158Y002093D01*
X006158Y002402D02*
X006468Y002402D01*
X006468Y002711D02*
X006158Y002711D01*
X001102Y002785D02*
X000792Y002785D01*
X001102Y002785D02*
X001102Y001475D01*
X000792Y001475D01*
X000792Y002785D01*
X000792Y001784D02*
X001102Y001784D01*
X001102Y002093D02*
X000792Y002093D01*
X000792Y002402D02*
X001102Y002402D01*
X001102Y002711D02*
X000792Y002711D01*
D12*
X000940Y001680D03*
X006320Y001680D03*
X006320Y002580D03*
X000940Y002580D03*
D13*
X031550Y002130D03*
X034710Y002130D03*
M02*
