G75*
%MOIN*%
%OFA0B0*%
%FSLAX24Y24*%
%IPPOS*%
%LPD*%
%AMOC8*
5,1,8,0,0,1.08239X$1,22.5*
%
%ADD10C,0.0290*%
%ADD11C,0.0300*%
%ADD12C,0.0525*%
%ADD13C,0.0200*%
%ADD14C,0.0060*%
%ADD15C,0.0200*%
%ADD16C,0.0080*%
%ADD17C,0.0070*%
D10*
X002055Y001835D03*
X002449Y001835D03*
X002843Y001835D03*
X003236Y001835D03*
X003630Y001835D03*
X004024Y001835D03*
X004417Y001835D03*
X004811Y001835D03*
X005205Y001835D03*
X005402Y002425D03*
X005008Y002425D03*
X004614Y002425D03*
X004221Y002425D03*
X003827Y002425D03*
X003433Y002425D03*
X003039Y002425D03*
X002646Y002425D03*
X002252Y002425D03*
X001858Y002425D03*
X031625Y002885D03*
X034635Y002885D03*
X034440Y001375D03*
X031820Y001375D03*
D11*
X006463Y002780D02*
X006163Y002780D01*
X006463Y002780D02*
X006463Y001480D01*
X006163Y001480D01*
X006163Y002780D01*
X006163Y001779D02*
X006463Y001779D01*
X006463Y002078D02*
X006163Y002078D01*
X006163Y002377D02*
X006463Y002377D01*
X006463Y002676D02*
X006163Y002676D01*
X001097Y002780D02*
X000797Y002780D01*
X001097Y002780D02*
X001097Y001480D01*
X000797Y001480D01*
X000797Y002780D01*
X000797Y001779D02*
X001097Y001779D01*
X001097Y002078D02*
X000797Y002078D01*
X000797Y002377D02*
X001097Y002377D01*
X001097Y002676D02*
X000797Y002676D01*
X000980Y003330D02*
X000980Y000930D01*
D12*
X031550Y002130D03*
X034710Y002130D03*
D13*
X033780Y002780D03*
X033000Y002780D03*
X032730Y002780D03*
X032230Y002780D03*
X034100Y001480D03*
X033380Y001430D03*
X032630Y001430D03*
X008330Y001680D03*
X008030Y001680D03*
X007730Y001680D03*
X007430Y001680D03*
X006830Y001880D03*
X006830Y002150D03*
X007430Y002480D03*
X007700Y002480D03*
X007970Y002480D03*
X008240Y002480D03*
X005750Y002570D03*
X001730Y002830D03*
D14*
X000568Y000316D02*
X000452Y000364D01*
X034808Y000364D01*
X034692Y000316D01*
X034630Y000310D01*
X000630Y000310D01*
X000568Y000316D01*
X000452Y000364D02*
X000364Y000452D01*
X000316Y000568D01*
X000310Y000630D01*
X000310Y003630D01*
X000316Y003692D01*
X000364Y003808D01*
X000452Y003896D01*
X000568Y003944D01*
X000630Y003950D01*
X034630Y003950D01*
X034692Y003944D01*
X034808Y003896D01*
X034896Y003808D01*
X034944Y003692D01*
X034950Y003630D01*
X034950Y002442D01*
X034896Y002478D01*
X034824Y002507D01*
X034749Y002522D01*
X034740Y002522D01*
X034740Y002160D01*
X034680Y002160D01*
X034680Y002522D01*
X034671Y002522D01*
X034596Y002507D01*
X034524Y002478D01*
X034460Y002435D01*
X034405Y002380D01*
X034370Y002328D01*
X034370Y002808D01*
X034371Y002805D01*
X034391Y002755D01*
X034421Y002710D01*
X034460Y002671D01*
X034505Y002641D01*
X034555Y002621D01*
X034608Y002610D01*
X034620Y002610D01*
X034620Y002870D01*
X034650Y002870D01*
X034650Y002900D01*
X034620Y002900D01*
X034620Y003160D01*
X034608Y003160D01*
X034555Y003149D01*
X034505Y003129D01*
X034460Y003099D01*
X034421Y003060D01*
X034391Y003015D01*
X034371Y002965D01*
X034370Y002962D01*
X034370Y003309D01*
X034259Y003420D01*
X034070Y003609D01*
X033959Y003720D01*
X031251Y003720D01*
X030601Y003070D01*
X008101Y003070D01*
X007990Y002959D01*
X007990Y002950D01*
X007190Y003750D01*
X004982Y003750D01*
X004912Y003680D01*
X003892Y002660D01*
X003730Y002660D01*
X003630Y002561D01*
X003530Y002660D01*
X003336Y002660D01*
X003236Y002561D01*
X003137Y002660D01*
X002942Y002660D01*
X002843Y002561D01*
X002766Y002638D01*
X002766Y002714D01*
X002695Y002784D01*
X002530Y002950D01*
X001879Y002950D01*
X001809Y003020D01*
X001651Y003020D01*
X001540Y002909D01*
X001540Y002751D01*
X001651Y002640D01*
X001741Y002640D01*
X001623Y002523D01*
X001623Y002328D01*
X001761Y002190D01*
X001777Y002190D01*
X001850Y002118D01*
X001850Y001962D01*
X001820Y001932D01*
X001820Y001737D01*
X001958Y001600D01*
X002153Y001600D01*
X002252Y001699D01*
X002352Y001600D01*
X002546Y001600D01*
X002646Y001699D01*
X002745Y001600D01*
X002940Y001600D01*
X003039Y001699D01*
X003139Y001600D01*
X003302Y001600D01*
X004241Y000660D01*
X007480Y000660D01*
X008110Y001290D01*
X008110Y001161D01*
X008221Y001050D01*
X030631Y001050D01*
X031111Y000570D01*
X033389Y000570D01*
X033500Y000681D01*
X033970Y001151D01*
X033970Y001341D01*
X033973Y001338D01*
X034021Y001290D01*
X034033Y001290D01*
X034043Y001282D01*
X034111Y001290D01*
X034178Y001290D01*
X034196Y001245D01*
X034226Y001200D01*
X034265Y001161D01*
X034310Y001131D01*
X034360Y001111D01*
X034413Y001100D01*
X034425Y001100D01*
X034425Y001360D01*
X034455Y001360D01*
X034455Y001390D01*
X034425Y001390D01*
X034425Y001650D01*
X034413Y001650D01*
X034370Y001641D01*
X034370Y001932D01*
X034405Y001880D01*
X034460Y001825D01*
X034524Y001782D01*
X034596Y001753D01*
X034671Y001738D01*
X034680Y001738D01*
X034680Y002100D01*
X034740Y002100D01*
X034740Y001738D01*
X034749Y001738D01*
X034824Y001753D01*
X034896Y001782D01*
X034950Y001818D01*
X034950Y000630D01*
X034944Y000568D01*
X034896Y000452D01*
X034808Y000364D01*
X034866Y000423D02*
X000394Y000423D01*
X000352Y000481D02*
X034908Y000481D01*
X034932Y000540D02*
X000328Y000540D01*
X000313Y000598D02*
X031083Y000598D01*
X031025Y000657D02*
X000310Y000657D01*
X000310Y000715D02*
X004186Y000715D01*
X004128Y000774D02*
X000310Y000774D01*
X000310Y000832D02*
X004069Y000832D01*
X004011Y000891D02*
X000310Y000891D01*
X000310Y000949D02*
X003952Y000949D01*
X003894Y001008D02*
X000310Y001008D01*
X000310Y001066D02*
X003835Y001066D01*
X003777Y001125D02*
X000310Y001125D01*
X000310Y001183D02*
X003718Y001183D01*
X003660Y001242D02*
X001244Y001242D01*
X001230Y001232D02*
X001275Y001263D01*
X001314Y001302D01*
X001345Y001347D01*
X001366Y001398D01*
X001377Y001452D01*
X001377Y002100D01*
X000977Y002100D01*
X000977Y002160D01*
X001377Y002160D01*
X001377Y002808D01*
X001366Y002862D01*
X001345Y002913D01*
X001314Y002958D01*
X001275Y002997D01*
X001230Y003028D01*
X001179Y003049D01*
X001125Y003060D01*
X000977Y003060D01*
X000977Y002970D01*
X000917Y002970D01*
X000917Y003060D01*
X000769Y003060D01*
X000715Y003049D01*
X000664Y003028D01*
X000619Y002997D01*
X000580Y002958D01*
X000549Y002913D01*
X000528Y002862D01*
X000517Y002808D01*
X000517Y002160D01*
X000917Y002160D01*
X000917Y002100D01*
X000517Y002100D01*
X000517Y001452D01*
X000528Y001398D01*
X000549Y001347D01*
X000580Y001302D01*
X000619Y001263D01*
X000664Y001232D01*
X000715Y001211D01*
X000769Y001200D01*
X000917Y001200D01*
X000917Y001290D01*
X000977Y001290D01*
X000977Y001200D01*
X001125Y001200D01*
X001179Y001211D01*
X001230Y001232D01*
X000977Y001242D02*
X000917Y001242D01*
X000650Y001242D02*
X000310Y001242D01*
X000310Y001300D02*
X000581Y001300D01*
X000544Y001359D02*
X000310Y001359D01*
X000310Y001417D02*
X000524Y001417D01*
X000517Y001476D02*
X000310Y001476D01*
X000310Y001534D02*
X000517Y001534D01*
X000517Y001593D02*
X000310Y001593D01*
X000310Y001651D02*
X000517Y001651D01*
X000517Y001710D02*
X000310Y001710D01*
X000310Y001768D02*
X000517Y001768D01*
X000517Y001827D02*
X000310Y001827D01*
X000310Y001885D02*
X000517Y001885D01*
X000517Y001944D02*
X000310Y001944D01*
X000310Y002002D02*
X000517Y002002D01*
X000517Y002061D02*
X000310Y002061D01*
X000310Y002119D02*
X000917Y002119D01*
X000977Y002119D02*
X001849Y002119D01*
X001850Y002061D02*
X001377Y002061D01*
X001377Y002002D02*
X001850Y002002D01*
X001832Y001944D02*
X001377Y001944D01*
X001377Y001885D02*
X001820Y001885D01*
X001820Y001827D02*
X001377Y001827D01*
X001377Y001768D02*
X001820Y001768D01*
X001848Y001710D02*
X001377Y001710D01*
X001377Y001651D02*
X001907Y001651D01*
X002204Y001651D02*
X002300Y001651D01*
X002598Y001651D02*
X002694Y001651D01*
X002991Y001651D02*
X003088Y001651D01*
X003309Y001593D02*
X001377Y001593D01*
X001377Y001534D02*
X003367Y001534D01*
X003426Y001476D02*
X001377Y001476D01*
X001370Y001417D02*
X003484Y001417D01*
X003543Y001359D02*
X001350Y001359D01*
X001313Y001300D02*
X003601Y001300D01*
X004417Y001835D02*
X005172Y001080D01*
X007130Y001080D01*
X007730Y001680D01*
X007430Y001680D02*
X006980Y001230D01*
X005416Y001230D01*
X004811Y001835D01*
X004485Y000930D02*
X003630Y001835D01*
X003236Y001835D02*
X004291Y000780D01*
X007430Y000780D01*
X008330Y001680D01*
X008030Y001680D02*
X007280Y000930D01*
X004485Y000930D01*
X007535Y000715D02*
X030966Y000715D01*
X030908Y000774D02*
X007593Y000774D01*
X007652Y000832D02*
X030849Y000832D01*
X030791Y000891D02*
X007710Y000891D01*
X007769Y000949D02*
X030732Y000949D01*
X030674Y001008D02*
X007827Y001008D01*
X007886Y001066D02*
X008205Y001066D01*
X008147Y001125D02*
X007944Y001125D01*
X008003Y001183D02*
X008110Y001183D01*
X008110Y001242D02*
X008061Y001242D01*
X006830Y001880D02*
X031030Y001880D01*
X031280Y001630D01*
X032430Y001630D01*
X032630Y001430D01*
X033970Y001300D02*
X034011Y001300D01*
X033970Y001242D02*
X034198Y001242D01*
X034425Y001242D02*
X034455Y001242D01*
X034455Y001300D02*
X034425Y001300D01*
X034425Y001359D02*
X034455Y001359D01*
X034455Y001360D02*
X034455Y001100D01*
X034467Y001100D01*
X034520Y001111D01*
X034570Y001131D01*
X034615Y001161D01*
X034654Y001200D01*
X034684Y001245D01*
X034704Y001295D01*
X034715Y001348D01*
X034715Y001360D01*
X034455Y001360D01*
X034455Y001390D02*
X034715Y001390D01*
X034715Y001402D01*
X034704Y001455D01*
X034684Y001505D01*
X034654Y001550D01*
X034615Y001589D01*
X034570Y001619D01*
X034520Y001639D01*
X034467Y001650D01*
X034455Y001650D01*
X034455Y001390D01*
X034455Y001417D02*
X034425Y001417D01*
X034425Y001476D02*
X034455Y001476D01*
X034696Y001476D02*
X034950Y001476D01*
X034950Y001417D02*
X034712Y001417D01*
X034715Y001359D02*
X034950Y001359D01*
X034950Y001300D02*
X034705Y001300D01*
X034682Y001242D02*
X034950Y001242D01*
X034950Y001183D02*
X034637Y001183D01*
X034554Y001125D02*
X034950Y001125D01*
X034950Y001066D02*
X033885Y001066D01*
X033943Y001125D02*
X034326Y001125D01*
X034425Y001125D02*
X034455Y001125D01*
X034455Y001183D02*
X034425Y001183D01*
X034243Y001183D02*
X033970Y001183D01*
X033826Y001008D02*
X034950Y001008D01*
X034950Y000949D02*
X033768Y000949D01*
X033709Y000891D02*
X034950Y000891D01*
X034950Y000832D02*
X033651Y000832D01*
X033592Y000774D02*
X034950Y000774D01*
X034950Y000715D02*
X033534Y000715D01*
X033475Y000657D02*
X034950Y000657D01*
X034947Y000598D02*
X033417Y000598D01*
X034425Y001534D02*
X034455Y001534D01*
X034455Y001593D02*
X034425Y001593D01*
X034370Y001651D02*
X034950Y001651D01*
X034950Y001593D02*
X034609Y001593D01*
X034664Y001534D02*
X034950Y001534D01*
X034950Y001710D02*
X034370Y001710D01*
X034370Y001768D02*
X034558Y001768D01*
X034458Y001827D02*
X034370Y001827D01*
X034680Y001827D02*
X034740Y001827D01*
X034740Y001768D02*
X034680Y001768D01*
X034862Y001768D02*
X034950Y001768D01*
X034740Y001885D02*
X034680Y001885D01*
X034680Y001944D02*
X034740Y001944D01*
X034740Y002002D02*
X034680Y002002D01*
X034680Y002061D02*
X034740Y002061D01*
X034740Y002178D02*
X034680Y002178D01*
X034680Y002236D02*
X034740Y002236D01*
X034740Y002295D02*
X034680Y002295D01*
X034680Y002353D02*
X034740Y002353D01*
X034740Y002412D02*
X034680Y002412D01*
X034680Y002470D02*
X034740Y002470D01*
X034908Y002470D02*
X034950Y002470D01*
X034950Y002529D02*
X034370Y002529D01*
X034370Y002587D02*
X034950Y002587D01*
X034765Y002641D02*
X034715Y002621D01*
X034662Y002610D01*
X034650Y002610D01*
X034650Y002870D01*
X034910Y002870D01*
X034910Y002858D01*
X034899Y002805D01*
X034879Y002755D01*
X034849Y002710D01*
X034810Y002671D01*
X034765Y002641D01*
X034772Y002646D02*
X034950Y002646D01*
X034950Y002704D02*
X034843Y002704D01*
X034882Y002763D02*
X034950Y002763D01*
X034650Y002763D02*
X034620Y002763D01*
X034620Y002704D02*
X034650Y002704D01*
X034650Y002646D02*
X034620Y002646D01*
X034498Y002646D02*
X034370Y002646D01*
X034370Y002704D02*
X034427Y002704D01*
X034388Y002763D02*
X034370Y002763D01*
X034620Y002821D02*
X034650Y002821D01*
X034650Y002880D02*
X034950Y002880D01*
X034910Y002900D02*
X034650Y002900D01*
X034650Y003160D01*
X034662Y003160D01*
X034715Y003149D01*
X034765Y003129D01*
X034810Y003099D01*
X034849Y003060D01*
X034879Y003015D01*
X034899Y002965D01*
X034910Y002912D01*
X034910Y002900D01*
X034905Y002938D02*
X034950Y002938D01*
X034650Y002938D02*
X034620Y002938D01*
X034620Y002997D02*
X034650Y002997D01*
X034650Y003055D02*
X034620Y003055D01*
X034418Y003055D02*
X034370Y003055D01*
X034370Y002997D02*
X034384Y002997D01*
X034852Y003055D02*
X034950Y003055D01*
X034950Y002997D02*
X034886Y002997D01*
X034950Y003114D02*
X034788Y003114D01*
X034650Y003114D02*
X034620Y003114D01*
X034482Y003114D02*
X034370Y003114D01*
X034370Y003172D02*
X034950Y003172D01*
X034950Y003231D02*
X034370Y003231D01*
X034370Y003289D02*
X034950Y003289D01*
X034950Y003348D02*
X034331Y003348D01*
X034273Y003406D02*
X034950Y003406D01*
X034950Y003465D02*
X034214Y003465D01*
X034156Y003523D02*
X034950Y003523D01*
X034950Y003582D02*
X034097Y003582D01*
X034039Y003640D02*
X034949Y003640D01*
X034941Y003699D02*
X033980Y003699D01*
X034888Y003816D02*
X000372Y003816D01*
X000343Y003757D02*
X034917Y003757D01*
X034830Y003874D02*
X000430Y003874D01*
X000540Y003933D02*
X034720Y003933D01*
X031230Y003699D02*
X007241Y003699D01*
X007300Y003640D02*
X031171Y003640D01*
X031113Y003582D02*
X007358Y003582D01*
X007140Y003630D02*
X008240Y002530D01*
X008240Y002480D01*
X007970Y002480D02*
X007970Y002580D01*
X007070Y003480D01*
X005275Y003480D01*
X004221Y002425D01*
X003827Y002425D02*
X005032Y003630D01*
X007140Y003630D01*
X007417Y003523D02*
X031054Y003523D01*
X030996Y003465D02*
X007475Y003465D01*
X007534Y003406D02*
X030937Y003406D01*
X030879Y003348D02*
X007592Y003348D01*
X007651Y003289D02*
X030820Y003289D01*
X030762Y003231D02*
X007709Y003231D01*
X007768Y003172D02*
X030703Y003172D01*
X030645Y003114D02*
X007826Y003114D01*
X007885Y003055D02*
X008086Y003055D01*
X008028Y002997D02*
X007943Y002997D01*
X006780Y002930D02*
X006780Y002540D01*
X007040Y002280D01*
X030880Y002280D01*
X031240Y002640D01*
X031740Y002640D01*
X032080Y002980D01*
X032530Y002980D01*
X032730Y002780D01*
X034903Y002821D02*
X034950Y002821D01*
X034512Y002470D02*
X034370Y002470D01*
X034370Y002412D02*
X034436Y002412D01*
X034387Y002353D02*
X034370Y002353D01*
X034370Y001885D02*
X034402Y001885D01*
X007700Y002480D02*
X007700Y002630D01*
X007000Y003330D01*
X005490Y003330D01*
X005008Y002848D01*
X005008Y002425D01*
X005402Y002425D02*
X005402Y002882D01*
X005700Y003180D01*
X006930Y003180D01*
X007430Y002680D01*
X007430Y002480D01*
X005750Y002570D02*
X005750Y002790D01*
X005990Y003030D01*
X006680Y003030D01*
X006780Y002930D01*
X004462Y003231D02*
X000310Y003231D01*
X000310Y003172D02*
X004404Y003172D01*
X004345Y003114D02*
X000310Y003114D01*
X000310Y003055D02*
X000744Y003055D01*
X000618Y002997D02*
X000310Y002997D01*
X000310Y002938D02*
X000566Y002938D01*
X000535Y002880D02*
X000310Y002880D01*
X000310Y002821D02*
X000520Y002821D01*
X000517Y002763D02*
X000310Y002763D01*
X000310Y002704D02*
X000517Y002704D01*
X000517Y002646D02*
X000310Y002646D01*
X000310Y002587D02*
X000517Y002587D01*
X000517Y002529D02*
X000310Y002529D01*
X000310Y002470D02*
X000517Y002470D01*
X000517Y002412D02*
X000310Y002412D01*
X000310Y002353D02*
X000517Y002353D01*
X000517Y002295D02*
X000310Y002295D01*
X000310Y002236D02*
X000517Y002236D01*
X000517Y002178D02*
X000310Y002178D01*
X001377Y002178D02*
X001790Y002178D01*
X001715Y002236D02*
X001377Y002236D01*
X001377Y002295D02*
X001657Y002295D01*
X001623Y002353D02*
X001377Y002353D01*
X001377Y002412D02*
X001623Y002412D01*
X001623Y002470D02*
X001377Y002470D01*
X001377Y002529D02*
X001629Y002529D01*
X001688Y002587D02*
X001377Y002587D01*
X001377Y002646D02*
X001646Y002646D01*
X001587Y002704D02*
X001377Y002704D01*
X001377Y002763D02*
X001540Y002763D01*
X001540Y002821D02*
X001374Y002821D01*
X001359Y002880D02*
X001540Y002880D01*
X001569Y002938D02*
X001328Y002938D01*
X001276Y002997D02*
X001628Y002997D01*
X001832Y002997D02*
X004228Y002997D01*
X004287Y003055D02*
X001150Y003055D01*
X000977Y003055D02*
X000917Y003055D01*
X000917Y002997D02*
X000977Y002997D01*
X001730Y002830D02*
X002480Y002830D01*
X002646Y002664D01*
X002646Y002425D01*
X002816Y002587D02*
X002869Y002587D01*
X003210Y002587D02*
X003263Y002587D01*
X003604Y002587D02*
X003656Y002587D01*
X003715Y002646D02*
X003545Y002646D01*
X003321Y002646D02*
X003152Y002646D01*
X002927Y002646D02*
X002766Y002646D01*
X002766Y002704D02*
X003936Y002704D01*
X003994Y002763D02*
X002717Y002763D01*
X002659Y002821D02*
X004053Y002821D01*
X004111Y002880D02*
X002600Y002880D01*
X002542Y002938D02*
X004170Y002938D01*
X005402Y002572D02*
X005402Y002425D01*
X004521Y003289D02*
X000310Y003289D01*
X000310Y003348D02*
X004579Y003348D01*
X004638Y003406D02*
X000310Y003406D01*
X000310Y003465D02*
X004696Y003465D01*
X004755Y003523D02*
X000310Y003523D01*
X000310Y003582D02*
X004813Y003582D01*
X004872Y003640D02*
X000311Y003640D01*
X000319Y003699D02*
X004930Y003699D01*
D15*
X008180Y002880D02*
X030680Y002880D01*
X031330Y003530D01*
X033880Y003530D01*
X034180Y003230D01*
X034180Y001580D01*
X034100Y001480D01*
X033380Y001430D02*
X033380Y002980D01*
X033150Y003210D01*
X031510Y003210D01*
X030830Y002530D01*
X008540Y002530D01*
X008590Y001540D02*
X030920Y001540D01*
X031400Y001060D01*
X032760Y001060D01*
X033000Y001300D01*
X033000Y002780D01*
X033780Y002780D02*
X033780Y001230D01*
X033310Y000760D01*
X031190Y000760D01*
X030710Y001240D01*
X008300Y001240D01*
D16*
X006850Y002130D02*
X006830Y002150D01*
X006850Y002130D02*
X030980Y002130D01*
X031350Y002500D01*
X031950Y002500D02*
X032230Y002780D01*
D17*
X031950Y002500D02*
X031350Y002500D01*
M02*
