G75*
%MOIN*%
%OFA0B0*%
%FSLAX24Y24*%
%IPPOS*%
%LPD*%
%AMOC8*
5,1,8,0,0,1.08239X$1,22.5*
%
%ADD10C,0.0000*%
D10*
X000630Y000130D02*
X034630Y000130D01*
X034674Y000132D01*
X034717Y000138D01*
X034759Y000147D01*
X034801Y000160D01*
X034841Y000177D01*
X034880Y000197D01*
X034917Y000220D01*
X034951Y000247D01*
X034984Y000276D01*
X035013Y000309D01*
X035040Y000343D01*
X035063Y000380D01*
X035083Y000419D01*
X035100Y000459D01*
X035113Y000501D01*
X035122Y000543D01*
X035128Y000586D01*
X035130Y000630D01*
X035130Y003630D01*
X035128Y003674D01*
X035122Y003717D01*
X035113Y003759D01*
X035100Y003801D01*
X035083Y003841D01*
X035063Y003880D01*
X035040Y003917D01*
X035013Y003951D01*
X034984Y003984D01*
X034951Y004013D01*
X034917Y004040D01*
X034880Y004063D01*
X034841Y004083D01*
X034801Y004100D01*
X034759Y004113D01*
X034717Y004122D01*
X034674Y004128D01*
X034630Y004130D01*
X000630Y004130D01*
X000586Y004128D01*
X000543Y004122D01*
X000501Y004113D01*
X000459Y004100D01*
X000419Y004083D01*
X000380Y004063D01*
X000343Y004040D01*
X000309Y004013D01*
X000276Y003984D01*
X000247Y003951D01*
X000220Y003917D01*
X000197Y003880D01*
X000177Y003841D01*
X000160Y003801D01*
X000147Y003759D01*
X000138Y003717D01*
X000132Y003674D01*
X000130Y003630D01*
X000130Y000630D01*
X000132Y000586D01*
X000138Y000543D01*
X000147Y000501D01*
X000160Y000459D01*
X000177Y000419D01*
X000197Y000380D01*
X000220Y000343D01*
X000247Y000309D01*
X000276Y000276D01*
X000309Y000247D01*
X000343Y000220D01*
X000380Y000197D01*
X000419Y000177D01*
X000459Y000160D01*
X000501Y000147D01*
X000543Y000138D01*
X000586Y000132D01*
X000630Y000130D01*
X000730Y001680D02*
X000732Y001709D01*
X000738Y001737D01*
X000747Y001764D01*
X000761Y001789D01*
X000777Y001813D01*
X000797Y001833D01*
X000819Y001852D01*
X000843Y001866D01*
X000870Y001878D01*
X000897Y001886D01*
X000926Y001890D01*
X000954Y001890D01*
X000983Y001886D01*
X001010Y001878D01*
X001037Y001866D01*
X001061Y001852D01*
X001083Y001833D01*
X001103Y001813D01*
X001119Y001789D01*
X001133Y001764D01*
X001142Y001737D01*
X001148Y001709D01*
X001150Y001680D01*
X001148Y001651D01*
X001142Y001623D01*
X001133Y001596D01*
X001119Y001571D01*
X001103Y001547D01*
X001083Y001527D01*
X001061Y001508D01*
X001037Y001494D01*
X001010Y001482D01*
X000983Y001474D01*
X000954Y001470D01*
X000926Y001470D01*
X000897Y001474D01*
X000870Y001482D01*
X000843Y001494D01*
X000819Y001508D01*
X000797Y001527D01*
X000777Y001547D01*
X000761Y001571D01*
X000747Y001596D01*
X000738Y001623D01*
X000732Y001651D01*
X000730Y001680D01*
X006110Y001680D02*
X006112Y001709D01*
X006118Y001737D01*
X006127Y001764D01*
X006141Y001789D01*
X006157Y001813D01*
X006177Y001833D01*
X006199Y001852D01*
X006223Y001866D01*
X006250Y001878D01*
X006277Y001886D01*
X006306Y001890D01*
X006334Y001890D01*
X006363Y001886D01*
X006390Y001878D01*
X006417Y001866D01*
X006441Y001852D01*
X006463Y001833D01*
X006483Y001813D01*
X006499Y001789D01*
X006513Y001764D01*
X006522Y001737D01*
X006528Y001709D01*
X006530Y001680D01*
X006528Y001651D01*
X006522Y001623D01*
X006513Y001596D01*
X006499Y001571D01*
X006483Y001547D01*
X006463Y001527D01*
X006441Y001508D01*
X006417Y001494D01*
X006390Y001482D01*
X006363Y001474D01*
X006334Y001470D01*
X006306Y001470D01*
X006277Y001474D01*
X006250Y001482D01*
X006223Y001494D01*
X006199Y001508D01*
X006177Y001527D01*
X006157Y001547D01*
X006141Y001571D01*
X006127Y001596D01*
X006118Y001623D01*
X006112Y001651D01*
X006110Y001680D01*
X006110Y002580D02*
X006112Y002609D01*
X006118Y002637D01*
X006127Y002664D01*
X006141Y002689D01*
X006157Y002713D01*
X006177Y002733D01*
X006199Y002752D01*
X006223Y002766D01*
X006250Y002778D01*
X006277Y002786D01*
X006306Y002790D01*
X006334Y002790D01*
X006363Y002786D01*
X006390Y002778D01*
X006417Y002766D01*
X006441Y002752D01*
X006463Y002733D01*
X006483Y002713D01*
X006499Y002689D01*
X006513Y002664D01*
X006522Y002637D01*
X006528Y002609D01*
X006530Y002580D01*
X006528Y002551D01*
X006522Y002523D01*
X006513Y002496D01*
X006499Y002471D01*
X006483Y002447D01*
X006463Y002427D01*
X006441Y002408D01*
X006417Y002394D01*
X006390Y002382D01*
X006363Y002374D01*
X006334Y002370D01*
X006306Y002370D01*
X006277Y002374D01*
X006250Y002382D01*
X006223Y002394D01*
X006199Y002408D01*
X006177Y002427D01*
X006157Y002447D01*
X006141Y002471D01*
X006127Y002496D01*
X006118Y002523D01*
X006112Y002551D01*
X006110Y002580D01*
X000730Y002580D02*
X000732Y002609D01*
X000738Y002637D01*
X000747Y002664D01*
X000761Y002689D01*
X000777Y002713D01*
X000797Y002733D01*
X000819Y002752D01*
X000843Y002766D01*
X000870Y002778D01*
X000897Y002786D01*
X000926Y002790D01*
X000954Y002790D01*
X000983Y002786D01*
X001010Y002778D01*
X001037Y002766D01*
X001061Y002752D01*
X001083Y002733D01*
X001103Y002713D01*
X001119Y002689D01*
X001133Y002664D01*
X001142Y002637D01*
X001148Y002609D01*
X001150Y002580D01*
X001148Y002551D01*
X001142Y002523D01*
X001133Y002496D01*
X001119Y002471D01*
X001103Y002447D01*
X001083Y002427D01*
X001061Y002408D01*
X001037Y002394D01*
X001010Y002382D01*
X000983Y002374D01*
X000954Y002370D01*
X000926Y002370D01*
X000897Y002374D01*
X000870Y002382D01*
X000843Y002394D01*
X000819Y002408D01*
X000797Y002427D01*
X000777Y002447D01*
X000761Y002471D01*
X000747Y002496D01*
X000738Y002523D01*
X000732Y002551D01*
X000730Y002580D01*
M02*
