%
M48
M72
T01C0.0100
T02C0.0180
T03C0.0185
T04C0.0350
T05C0.0420
%
T01
X7430Y1680
X7730Y1680
X8030Y1680
X8330Y1680
X6830Y1880
X6830Y2150
X7430Y2480
X7700Y2480
X7970Y2480
X8240Y2480
X5750Y2570
X1730Y2830
X32230Y2780
X32730Y2780
X33000Y2780
X33780Y2780
X34100Y1480
X33380Y1430
X32630Y1430
T02
X31820Y1375
X34440Y1375
X34635Y2885
X31625Y2885
T03
X5402Y2425
X5008Y2425
X4614Y2425
X4221Y2425
X3827Y2425
X3433Y2425
X3039Y2425
X2646Y2425
X2252Y2425
X1858Y2425
X2055Y1835
X2449Y1835
X2843Y1835
X3236Y1835
X3630Y1835
X4024Y1835
X4417Y1835
X4811Y1835
X5205Y1835
T04
X31550Y2130
X34710Y2130
T05
X940Y1680
X6320Y1680
X6320Y2580
X940Y2580
M30
